<svg xmlns="http://www.w3.org/2000/svg" width="216.71" height="115.117" viewBox="0 0 57.338 30.458"><script xmlns=""/><defs><linearGradient id="a" x1="193.35" x2="269.99" y1="214.68" y2="214.68" gradientUnits="userSpaceOnUse"><stop offset="0" stop-color="#52920d"/><stop offset="1" stop-color="#8bc53f"/></linearGradient><linearGradient id="b" x1="107.87" x2="221.09" y1="183.04" y2="183.04" gradientUnits="userSpaceOnUse"><stop offset="0" stop-color="#67b63d"/><stop offset="1" stop-color="#3d8b10"/></linearGradient></defs><path d="M251.92 181.31s3.83 16.79-23.92 36.75c0 0-18.14 15.96-34.06 18.98 0 0-6.23 27.77 21.92 10.62 0 0 19.08-9.38 34.82-25.72 15.74-16.34 18.72-31.51 18.72-31.51s2.72-10.91-3.51-13.23c0 0-5.43-4.29-13.96 4.11" class="cls-1" style="fill:url(#a);stroke-width:0" transform="matrix(.26458 0 0 .26458 -28.543 -36.91)"/><path d="M269.59 189.1c-1.46 7.29-4.78 13.57-5.24 14.43 3.46-6.16 5.01-10.89 5.24-14.43z" class="cls-4" style="fill:#b9da31;stroke-width:0" transform="matrix(.26458 0 0 .26458 -28.543 -36.91)"/><path d="M324.59 218.46c0-5.03-4.06-9.11-9.07-9.11h-12.81s-48.38 1.9-56.28-14.03c-5.8-11.69 28.27-35 22.31-2.4 2.85-8.75 3.91-23.22-12.59-27.51 0 0-14.54-4.42-26.02 15.14 0 0-23.5 47.38 72.65 47.02h12.73c5.01 0 9.07-4.08 9.07-9.11z" class="cls-4" style="fill:#b9da31;stroke-width:0" transform="matrix(.26458 0 0 .26458 -28.543 -36.91)"/><path d="M264.35 203.53s-.04.07-.06.1c0 0 .02-.04.06-.1z" class="cls-4" style="fill:#b9da31;stroke-width:0" transform="matrix(.26458 0 0 .26458 -28.543 -36.91)"/><path d="M205.25 149.09c-5.63 5.15-12.54 12.18-19.87 19.63-2.89 2.94-5.81 5.91-8.69 8.81-7.97 8-15.31 13.91-21.82 18.31 0 0-18.38 12.7-31.06 12.7-8.43 0-1.06.04-6.89.07-5.01.03-9.04 3.95-9.04 8.98s4.08 8.98 9.1 8.98h7.5s18.36-.1 39.93-15.17c8.39-5.61 16.81-12.57 25.2-21 1.87-1.87 3.75-3.74 5.63-5.65 7.65-15.21 16.97-32.41 25.83-45.22l.03-.03c-5.72.31-11.38 5.5-15.85 9.58z" class="cls-2" style="fill:url(#b);stroke-width:0" transform="matrix(.26458 0 0 .26458 -28.543 -36.91)"/><path d="M221.07 139.56s-34.86 52.87-44.11 89.66c0 0-3.75 11.7 3.64 20.49 7.39 8.8 22.86 3.08 22.86 3.08s-28.28 5.18 11.38-66.08c0 0 17.61-27.68 16.72-38.22 0 0-.36-7.86-10.49-8.93z" class="cls-5" style="fill:#67b63d;stroke-width:0" transform="matrix(.26458 0 0 .26458 -28.543 -36.91)"/><script xmlns=""/></svg>